<?xml version="1.0" encoding="UTF-8"?>
<svg xmlns="http://www.w3.org/2000/svg" xmlns:xlink="http://www.w3.org/1999/xlink" width="1280px" height="309px" viewBox="0 0 642 155" version="1.1">
<defs>
<clipPath id="clip1">
  <path d="M 15.828125 23.65625 L 123.546875 23.65625 L 123.546875 131.390625 L 15.828125 131.390625 Z M 15.828125 23.65625 "/>
</clipPath>
</defs>
<g id="surface1">
<path style=" stroke:none;fill-rule:nonzero;fill:rgb(12.156863%,12.156863%,12.156863%);fill-opacity:1;" d="M 195.492188 98.390625 L 209 58.417969 L 224.8125 58.417969 L 202.816406 116.835938 L 187.476562 116.835938 L 165.480469 58.417969 L 181.96875 58.417969 Z M 195.492188 98.390625 "/>
<path style=" stroke:none;fill-rule:nonzero;fill:rgb(12.156863%,12.156863%,12.156863%);fill-opacity:1;" d="M 294.667969 56.925781 C 301.152344 56.925781 306.265625 59.101562 310.007812 63.457031 C 313.746094 67.8125 315.617188 73.921875 315.617188 81.785156 L 315.617188 116.835938 L 300.046875 116.835938 L 300.046875 82.359375 C 300.046875 78.996094 299.1875 76.320312 297.46875 74.335938 C 295.753906 72.347656 293.597656 71.355469 291 71.355469 C 288.398438 71.355469 286.238281 72.347656 284.519531 74.335938 C 282.808594 76.320312 281.949219 78.996094 281.949219 82.359375 L 281.949219 116.835938 L 266.371094 116.835938 L 266.371094 82.359375 C 266.371094 78.996094 265.507812 76.320312 263.789062 74.335938 C 262.074219 72.347656 259.917969 71.355469 257.320312 71.355469 C 254.730469 71.355469 252.574219 72.347656 250.851562 74.335938 C 249.132812 76.320312 248.273438 78.996094 248.273438 82.359375 L 248.273438 116.835938 L 232.703125 116.835938 L 232.703125 58.417969 L 244.386719 58.417969 L 246.902344 64.144531 L 247.476562 64.144531 C 248.542969 62.621094 250.316406 61.035156 252.796875 59.390625 C 255.285156 57.746094 258.203125 56.925781 261.5625 56.925781 C 265.535156 56.925781 268.851562 57.769531 271.523438 59.453125 C 274.195312 61.132812 276.257812 63.042969 277.707031 65.179688 C 279.316406 63.042969 281.648438 61.132812 284.699219 59.453125 C 287.75 57.769531 291.074219 56.925781 294.667969 56.925781 Z M 294.667969 56.925781 "/>
<path style=" stroke:none;fill-rule:nonzero;fill:rgb(12.156863%,12.156863%,12.156863%);fill-opacity:1;" d="M 385.011719 86.707031 C 385.011719 89.539062 384.78125 91.714844 384.324219 93.238281 L 342.285156 93.238281 C 343.125 96.75 344.789062 99.5 347.269531 101.484375 C 349.75 103.46875 352.746094 104.464844 356.265625 104.464844 C 360.535156 104.464844 364.007812 103.015625 366.683594 100.117188 L 383.070312 100.117188 C 381.917969 102.9375 380.105469 105.765625 377.625 108.589844 C 375.144531 111.414062 372.070312 113.742188 368.398438 115.570312 C 364.734375 117.402344 360.765625 118.320312 356.496094 118.320312 C 351.066406 118.320312 346.0625 116.945312 341.480469 114.203125 C 336.902344 111.453125 333.277344 107.730469 330.601562 103.03125 C 327.933594 98.335938 326.601562 93.203125 326.601562 87.628906 C 326.601562 82.207031 327.953125 77.132812 330.667969 72.402344 C 333.375 67.664062 337.019531 63.902344 341.597656 61.113281 C 346.179688 58.320312 351.066406 56.925781 356.265625 56.925781 C 361.53125 56.925781 366.359375 58.226562 370.75 60.820312 C 375.136719 63.421875 378.609375 66.992188 381.167969 71.535156 C 383.730469 76.078125 385.011719 81.136719 385.011719 86.707031 Z M 356.265625 70.792969 C 352.902344 70.792969 349.957031 71.804688 347.4375 73.832031 C 344.921875 75.855469 343.207031 78.621094 342.285156 82.128906 L 370.007812 82.128906 C 369.085938 78.699219 367.386719 75.949219 364.90625 73.886719 C 362.425781 71.824219 359.546875 70.792969 356.265625 70.792969 Z M 356.265625 70.792969 "/>
<path style=" stroke:none;fill-rule:nonzero;fill:rgb(12.156863%,12.156863%,12.156863%);fill-opacity:1;" d="M 420.277344 118.320312 C 414.472656 118.320312 409.738281 116.414062 406.066406 112.59375 C 402.402344 108.777344 400.570312 103.585938 400.570312 97.023438 L 400.570312 72.277344 L 391.523438 72.277344 L 391.523438 59.566406 L 395.535156 59.566406 C 397.75 59.566406 399.464844 58.976562 400.6875 57.792969 C 401.910156 56.609375 402.523438 54.90625 402.523438 52.691406 L 402.523438 43.757812 L 416.152344 43.757812 L 416.152344 58.417969 L 428.179688 58.417969 L 428.179688 72.277344 L 416.152344 72.277344 L 416.152344 95.414062 C 416.152344 98.167969 416.855469 100.226562 418.273438 101.597656 C 419.683594 102.972656 421.648438 103.660156 424.164062 103.660156 C 425.765625 103.660156 427.105469 103.394531 428.179688 102.863281 L 428.179688 117.066406 C 425.808594 117.902344 423.175781 118.320312 420.277344 118.320312 Z M 420.277344 118.320312 "/>
<path style=" stroke:none;fill-rule:nonzero;fill:rgb(12.156863%,12.156863%,12.156863%);fill-opacity:1;" d="M 440.082031 116.835938 L 440.082031 58.417969 L 451.765625 58.417969 L 454.285156 64.144531 L 454.859375 64.144531 C 456 62.621094 457.734375 61.035156 460.0625 59.390625 C 462.394531 57.746094 465.203125 56.925781 468.484375 56.925781 C 470.546875 56.925781 472.300781 57.117188 473.75 57.5 L 473.75 73.082031 C 472.300781 72.699219 470.355469 72.503906 467.910156 72.503906 C 464.167969 72.503906 461.191406 73.632812 458.976562 75.890625 C 456.761719 78.144531 455.652344 81.253906 455.652344 85.222656 L 455.652344 116.835938 Z M 440.082031 116.835938 "/>
<path style=" stroke:none;fill-rule:nonzero;fill:rgb(12.156863%,12.156863%,12.156863%);fill-opacity:1;" d="M 498.59375 116.835938 L 483.023438 116.835938 L 483.023438 58.417969 L 498.59375 58.417969 Z M 490.808594 50.96875 C 488.363281 50.96875 486.300781 50.128906 484.625 48.449219 C 482.945312 46.773438 482.105469 44.707031 482.105469 42.261719 C 482.105469 39.824219 482.945312 37.765625 484.625 36.085938 C 486.300781 34.402344 488.363281 33.558594 490.808594 33.558594 C 493.253906 33.558594 495.316406 34.402344 496.996094 36.085938 C 498.671875 37.765625 499.515625 39.824219 499.515625 42.261719 C 499.515625 44.707031 498.671875 46.773438 496.996094 48.449219 C 495.316406 50.128906 493.253906 50.96875 490.808594 50.96875 Z M 490.808594 50.96875 "/>
<path style=" stroke:none;fill-rule:nonzero;fill:rgb(12.156863%,12.156863%,12.156863%);fill-opacity:1;" d="M 540.058594 118.320312 C 534.785156 118.320312 529.855469 116.925781 525.273438 114.140625 C 520.695312 111.355469 517.03125 107.59375 514.28125 102.863281 C 511.535156 98.128906 510.164062 93.046875 510.164062 87.628906 C 510.164062 82.207031 511.535156 77.132812 514.28125 72.402344 C 517.03125 67.664062 520.695312 63.902344 525.273438 61.113281 C 529.855469 58.320312 534.785156 56.925781 540.058594 56.925781 C 544.867188 56.925781 549.253906 58.054688 553.226562 60.308594 C 557.195312 62.5625 560.4375 65.5 562.953125 69.128906 C 565.472656 72.753906 567.117188 76.511719 567.886719 80.40625 L 552.304688 80.40625 C 552.003906 79.339844 551.355469 78.101562 550.363281 76.6875 C 549.371094 75.273438 547.996094 74.03125 546.234375 72.964844 C 544.480469 71.894531 542.421875 71.355469 540.058594 71.355469 C 535.933594 71.355469 532.515625 72.886719 529.796875 75.945312 C 527.085938 78.996094 525.734375 82.890625 525.734375 87.628906 C 525.734375 92.367188 527.085938 96.257812 529.796875 99.3125 C 532.515625 102.363281 535.933594 103.886719 540.058594 103.886719 C 542.421875 103.886719 544.480469 103.355469 546.234375 102.289062 C 547.996094 101.21875 549.371094 99.976562 550.363281 98.570312 C 551.355469 97.15625 552.003906 95.910156 552.304688 94.839844 L 567.886719 94.839844 C 567.117188 98.734375 565.472656 102.496094 562.953125 106.125 C 560.4375 109.757812 557.195312 112.695312 553.226562 114.945312 C 549.253906 117.195312 544.867188 118.320312 540.058594 118.320312 Z M 540.058594 118.320312 "/>
<path style=" stroke:none;fill-rule:nonzero;fill:rgb(12.156863%,12.156863%,12.156863%);fill-opacity:1;" d="M 599.371094 118.320312 C 594.632812 118.320312 590.453125 117.464844 586.824219 115.75 C 583.199219 114.03125 580.398438 111.660156 578.410156 108.644531 C 576.425781 105.628906 575.355469 102.246094 575.203125 98.507812 L 590.4375 98.507812 C 590.589844 100.722656 591.488281 102.5 593.125 103.835938 C 594.765625 105.171875 596.847656 105.84375 599.371094 105.84375 C 601.808594 105.84375 603.699219 105.328125 605.035156 104.296875 C 606.375 103.265625 607.042969 101.984375 607.042969 100.460938 C 607.042969 98.554688 606.125 97.0625 604.292969 96 C 602.460938 94.925781 599.597656 93.777344 595.707031 92.550781 C 591.734375 91.332031 588.46875 90.113281 585.914062 88.890625 C 583.355469 87.667969 581.160156 85.890625 579.320312 83.5625 C 577.488281 81.238281 576.574219 78.238281 576.574219 74.566406 C 576.574219 71.207031 577.449219 68.195312 579.207031 65.523438 C 580.964844 62.847656 583.527344 60.75 586.886719 59.222656 C 590.242188 57.691406 594.253906 56.925781 598.914062 56.925781 C 603.34375 56.925781 607.253906 57.769531 610.648438 59.453125 C 614.046875 61.132812 616.699219 63.441406 618.609375 66.382812 C 620.515625 69.324219 621.625 72.585938 621.933594 76.171875 L 606.582031 76.171875 C 606.050781 71.667969 603.496094 69.414062 598.914062 69.414062 C 596.699219 69.414062 595.015625 69.851562 593.867188 70.730469 C 592.722656 71.605469 592.152344 72.734375 592.152344 74.113281 C 592.152344 75.796875 593.007812 77.113281 594.722656 78.066406 C 596.441406 79.023438 599.210938 80.070312 603.03125 81.210938 C 607.078125 82.4375 610.398438 83.644531 613 84.828125 C 615.59375 86.003906 617.851562 87.800781 619.757812 90.207031 C 621.667969 92.613281 622.621094 95.722656 622.621094 99.539062 C 622.621094 105.117188 620.578125 109.640625 616.488281 113.117188 C 612.40625 116.585938 606.699219 118.320312 599.371094 118.320312 Z M 599.371094 118.320312 "/>
<g clip-path="url(#clip1)" clip-rule="nonzero">
<path style=" stroke:none;fill-rule:nonzero;fill:rgb(23.529412%,83.137256%,56.078434%);fill-opacity:1;" d="M 53.453125 23.65625 L 26.578125 23.65625 C 20.648438 23.65625 15.828125 28.480469 15.828125 34.410156 L 15.828125 72.039062 C 15.828125 77.96875 20.648438 82.789062 26.578125 82.789062 L 53.453125 82.789062 C 59.378906 82.789062 64.203125 77.96875 64.203125 72.039062 L 64.203125 34.410156 C 64.203125 28.480469 59.378906 23.65625 53.453125 23.65625 Z M 112.578125 23.65625 L 85.703125 23.65625 C 79.773438 23.65625 74.953125 28.480469 74.953125 34.410156 L 74.953125 50.535156 C 74.953125 56.464844 79.773438 61.285156 85.703125 61.285156 L 112.578125 61.285156 C 118.507812 61.285156 123.328125 56.464844 123.328125 50.535156 L 123.328125 34.410156 C 123.328125 28.480469 118.507812 23.65625 112.578125 23.65625 Z M 53.453125 93.542969 L 26.578125 93.542969 C 20.648438 93.542969 15.828125 98.363281 15.828125 104.292969 L 15.828125 120.417969 C 15.828125 126.347656 20.648438 131.171875 26.578125 131.171875 L 53.453125 131.171875 C 59.378906 131.171875 64.203125 126.347656 64.203125 120.417969 L 64.203125 104.292969 C 64.203125 98.363281 59.378906 93.542969 53.453125 93.542969 Z M 112.578125 72.039062 L 85.703125 72.039062 C 79.773438 72.039062 74.953125 76.859375 74.953125 82.789062 L 74.953125 120.417969 C 74.953125 126.347656 79.773438 131.171875 85.703125 131.171875 L 112.578125 131.171875 C 118.507812 131.171875 123.328125 126.347656 123.328125 120.417969 L 123.328125 82.789062 C 123.328125 76.859375 118.507812 72.039062 112.578125 72.039062 Z M 112.578125 72.039062 "/>
</g>
</g>
</svg>
