<svg xmlns="http://www.w3.org/2000/svg" xmlns:xlink="http://www.w3.org/1999/xlink" width="1280" zoomAndPan="magnify" viewBox="0 0 960 231.75" height="309" preserveAspectRatio="xMidYMid meet" version="1.2"><defs><clipPath id="08ceae0058"><rect x="0" width="695" y="0" height="216"/></clipPath><clipPath id="5dc14f23b0"><path d="M 23.667969 35.371094 L 184.742188 35.371094 L 184.742188 196.449219 L 23.667969 196.449219 Z M 23.667969 35.371094 "/></clipPath></defs><g id="0da319c642"><g transform="matrix(1,0,0,1,245,3)"><g clip-path="url(#08ceae0058)"><g style="fill:#ffffff;fill-opacity:1;"><g transform="translate(2.447384, 171.689009)"><path style="stroke:none" d="M 44.875 -27.578125 L 65.078125 -87.34375 L 88.71875 -87.34375 L 55.828125 0 L 32.890625 0 L 0 -87.34375 L 24.65625 -87.34375 Z M 44.875 -27.578125 "/></g></g><g style="fill:#ffffff;fill-opacity:1;"><g transform="translate(92.857996, 171.689009)"><path style="stroke:none" d="M 102.765625 -89.578125 C 112.460938 -89.578125 120.109375 -86.320312 125.703125 -79.8125 C 131.296875 -73.300781 134.09375 -64.164062 134.09375 -52.40625 L 134.09375 0 L 110.8125 0 L 110.8125 -51.546875 C 110.8125 -56.578125 109.523438 -60.578125 106.953125 -63.546875 C 104.390625 -66.515625 101.164062 -68 97.28125 -68 C 93.394531 -68 90.164062 -66.515625 87.59375 -63.546875 C 85.03125 -60.578125 83.75 -56.578125 83.75 -51.546875 L 83.75 0 L 60.453125 0 L 60.453125 -51.546875 C 60.453125 -56.578125 59.164062 -60.578125 56.59375 -63.546875 C 54.03125 -66.515625 50.804688 -68 46.921875 -68 C 43.046875 -68 39.820312 -66.515625 37.25 -63.546875 C 34.675781 -60.578125 33.390625 -56.578125 33.390625 -51.546875 L 33.390625 0 L 10.109375 0 L 10.109375 -87.34375 L 27.578125 -87.34375 L 31.34375 -78.78125 L 32.203125 -78.78125 C 33.796875 -81.0625 36.445312 -83.429688 40.15625 -85.890625 C 43.875 -88.347656 48.242188 -89.578125 53.265625 -89.578125 C 59.203125 -89.578125 64.164062 -88.316406 68.15625 -85.796875 C 72.15625 -83.285156 75.238281 -80.429688 77.40625 -77.234375 C 79.8125 -80.429688 83.296875 -83.285156 87.859375 -85.796875 C 92.421875 -88.316406 97.390625 -89.578125 102.765625 -89.578125 Z M 102.765625 -89.578125 "/></g></g><g style="fill:#ffffff;fill-opacity:1;"><g transform="translate(237.891434, 171.689009)"><path style="stroke:none" d="M 92.828125 -45.046875 C 92.828125 -40.816406 92.484375 -37.5625 91.796875 -35.28125 L 28.9375 -35.28125 C 30.195312 -30.03125 32.679688 -25.921875 36.390625 -22.953125 C 40.097656 -19.984375 44.582031 -18.5 49.84375 -18.5 C 56.226562 -18.5 61.421875 -20.664062 65.421875 -25 L 89.921875 -25 C 88.203125 -20.78125 85.488281 -16.554688 81.78125 -12.328125 C 78.070312 -8.109375 73.472656 -4.628906 67.984375 -1.890625 C 62.503906 0.847656 56.570312 2.21875 50.1875 2.21875 C 42.070312 2.21875 34.585938 0.164062 27.734375 -3.9375 C 20.890625 -8.050781 15.46875 -13.617188 11.46875 -20.640625 C 7.476562 -27.660156 5.484375 -35.335938 5.484375 -43.671875 C 5.484375 -51.773438 7.507812 -59.363281 11.5625 -66.4375 C 15.613281 -73.519531 21.0625 -79.144531 27.90625 -83.3125 C 34.757812 -87.488281 42.070312 -89.578125 49.84375 -89.578125 C 57.71875 -89.578125 64.9375 -87.632812 71.5 -83.75 C 78.0625 -79.863281 83.253906 -74.523438 87.078125 -67.734375 C 90.910156 -60.941406 92.828125 -53.378906 92.828125 -45.046875 Z M 49.84375 -68.84375 C 44.8125 -68.84375 40.410156 -67.328125 36.640625 -64.296875 C 32.878906 -61.273438 30.3125 -57.140625 28.9375 -51.890625 L 70.390625 -51.890625 C 69.015625 -57.023438 66.472656 -61.132812 62.765625 -64.21875 C 59.054688 -67.300781 54.75 -68.84375 49.84375 -68.84375 Z M 49.84375 -68.84375 "/></g></g><g style="fill:#ffffff;fill-opacity:1;"><g transform="translate(337.890979, 171.689009)"><path style="stroke:none" d="M 45.5625 2.21875 C 36.882812 2.21875 29.800781 -0.632812 24.3125 -6.34375 C 18.832031 -12.050781 16.09375 -19.8125 16.09375 -29.625 L 16.09375 -66.625 L 2.5625 -66.625 L 2.5625 -85.625 L 8.5625 -85.625 C 11.875 -85.625 14.441406 -86.507812 16.265625 -88.28125 C 18.097656 -90.050781 19.015625 -92.59375 19.015625 -95.90625 L 19.015625 -109.265625 L 39.390625 -109.265625 L 39.390625 -87.34375 L 57.375 -87.34375 L 57.375 -66.625 L 39.390625 -66.625 L 39.390625 -32.03125 C 39.390625 -27.914062 40.445312 -24.832031 42.5625 -22.78125 C 44.675781 -20.726562 47.613281 -19.703125 51.375 -19.703125 C 53.769531 -19.703125 55.769531 -20.097656 57.375 -20.890625 L 57.375 0.34375 C 53.832031 1.59375 49.894531 2.21875 45.5625 2.21875 Z M 45.5625 2.21875 "/></g></g><g style="fill:#ffffff;fill-opacity:1;"><g transform="translate(402.959303, 171.689009)"><path style="stroke:none" d="M 10.109375 0 L 10.109375 -87.34375 L 27.578125 -87.34375 L 31.34375 -78.78125 L 32.203125 -78.78125 C 33.910156 -81.0625 36.503906 -83.429688 39.984375 -85.890625 C 43.472656 -88.347656 47.671875 -89.578125 52.578125 -89.578125 C 55.660156 -89.578125 58.285156 -89.289062 60.453125 -88.71875 L 60.453125 -65.421875 C 58.285156 -65.992188 55.375 -66.28125 51.71875 -66.28125 C 46.125 -66.28125 41.671875 -64.59375 38.359375 -61.21875 C 35.046875 -57.851562 33.390625 -53.203125 33.390625 -47.265625 L 33.390625 0 Z M 10.109375 0 "/></g></g><g style="fill:#ffffff;fill-opacity:1;"><g transform="translate(467.17148, 171.689009)"><path style="stroke:none" d="M 33.390625 0 L 10.109375 0 L 10.109375 -87.34375 L 33.390625 -87.34375 Z M 21.75 -98.484375 C 18.09375 -98.484375 15.007812 -99.738281 12.5 -102.25 C 9.988281 -104.757812 8.734375 -107.84375 8.734375 -111.5 C 8.734375 -115.144531 9.988281 -118.222656 12.5 -120.734375 C 15.007812 -123.253906 18.09375 -124.515625 21.75 -124.515625 C 25.40625 -124.515625 28.488281 -123.253906 31 -120.734375 C 33.507812 -118.222656 34.765625 -115.144531 34.765625 -111.5 C 34.765625 -107.84375 33.507812 -104.757812 31 -102.25 C 28.488281 -99.738281 25.40625 -98.484375 21.75 -98.484375 Z M 21.75 -98.484375 "/></g></g><g style="fill:#ffffff;fill-opacity:1;"><g transform="translate(512.376942, 171.689009)"><path style="stroke:none" d="M 50.1875 2.21875 C 42.300781 2.21875 34.929688 0.132812 28.078125 -4.03125 C 21.234375 -8.195312 15.753906 -13.816406 11.640625 -20.890625 C 7.535156 -27.972656 5.484375 -35.566406 5.484375 -43.671875 C 5.484375 -51.773438 7.535156 -59.363281 11.640625 -66.4375 C 15.753906 -73.519531 21.234375 -79.144531 28.078125 -83.3125 C 34.929688 -87.488281 42.300781 -89.578125 50.1875 -89.578125 C 57.375 -89.578125 63.9375 -87.890625 69.875 -84.515625 C 75.8125 -81.148438 80.660156 -76.753906 84.421875 -71.328125 C 88.191406 -65.910156 90.648438 -60.289062 91.796875 -54.46875 L 68.5 -54.46875 C 68.050781 -56.0625 67.082031 -57.914062 65.59375 -60.03125 C 64.113281 -62.144531 62.054688 -64 59.421875 -65.59375 C 56.796875 -67.195312 53.71875 -68 50.1875 -68 C 44.019531 -68 38.90625 -65.710938 34.84375 -61.140625 C 30.789062 -56.578125 28.765625 -50.753906 28.765625 -43.671875 C 28.765625 -36.585938 30.789062 -30.765625 34.84375 -26.203125 C 38.90625 -21.640625 44.019531 -19.359375 50.1875 -19.359375 C 53.71875 -19.359375 56.796875 -20.15625 59.421875 -21.75 C 62.054688 -23.351562 64.113281 -25.207031 65.59375 -27.3125 C 67.082031 -29.425781 68.050781 -31.285156 68.5 -32.890625 L 91.796875 -32.890625 C 90.648438 -27.066406 88.191406 -21.441406 84.421875 -16.015625 C 80.660156 -10.585938 75.8125 -6.191406 69.875 -2.828125 C 63.9375 0.535156 57.375 2.21875 50.1875 2.21875 Z M 50.1875 2.21875 "/></g></g><g style="fill:#ffffff;fill-opacity:1;"><g transform="translate(610.492938, 171.689009)"><path style="stroke:none" d="M 40.765625 2.21875 C 33.679688 2.21875 27.425781 0.9375 22 -1.625 C 16.582031 -4.195312 12.390625 -7.738281 9.421875 -12.25 C 6.453125 -16.757812 4.851562 -21.8125 4.625 -27.40625 L 27.40625 -27.40625 C 27.632812 -24.09375 28.972656 -21.4375 31.421875 -19.4375 C 33.878906 -17.4375 36.992188 -16.4375 40.765625 -16.4375 C 44.410156 -16.4375 47.234375 -17.207031 49.234375 -18.75 C 51.234375 -20.289062 52.234375 -22.203125 52.234375 -24.484375 C 52.234375 -27.335938 50.863281 -29.5625 48.125 -31.15625 C 45.382812 -32.757812 41.101562 -34.476562 35.28125 -36.3125 C 29.34375 -38.132812 24.460938 -39.957031 20.640625 -41.78125 C 16.816406 -43.613281 13.53125 -46.269531 10.78125 -49.75 C 8.039062 -53.226562 6.671875 -57.710938 6.671875 -63.203125 C 6.671875 -68.222656 7.984375 -72.726562 10.609375 -76.71875 C 13.242188 -80.71875 17.070312 -83.859375 22.09375 -86.140625 C 27.113281 -88.429688 33.109375 -89.578125 40.078125 -89.578125 C 46.703125 -89.578125 52.550781 -88.316406 57.625 -85.796875 C 62.707031 -83.285156 66.675781 -79.832031 69.53125 -75.4375 C 72.382812 -71.039062 74.039062 -66.160156 74.5 -60.796875 L 51.546875 -60.796875 C 50.753906 -67.535156 46.929688 -70.90625 40.078125 -70.90625 C 36.765625 -70.90625 34.25 -70.25 32.53125 -68.9375 C 30.820312 -67.625 29.96875 -65.9375 29.96875 -63.875 C 29.96875 -61.363281 31.25 -59.394531 33.8125 -57.96875 C 36.382812 -56.539062 40.523438 -54.972656 46.234375 -53.265625 C 52.285156 -51.429688 57.253906 -49.628906 61.140625 -47.859375 C 65.023438 -46.097656 68.394531 -43.414062 71.25 -39.8125 C 74.101562 -36.21875 75.53125 -31.566406 75.53125 -25.859375 C 75.53125 -17.523438 72.472656 -10.757812 66.359375 -5.5625 C 60.253906 -0.375 51.722656 2.21875 40.765625 2.21875 Z M 40.765625 2.21875 "/></g></g></g></g><g clip-rule="nonzero" clip-path="url(#5dc14f23b0)"><path style=" stroke:none;fill-rule:nonzero;fill:#3cd48f;fill-opacity:1;" d="M 79.929688 35.371094 L 39.742188 35.371094 C 30.875 35.371094 23.667969 42.582031 23.667969 51.449219 L 23.667969 107.710938 C 23.667969 116.574219 30.875 123.785156 39.742188 123.785156 L 79.929688 123.785156 C 88.792969 123.785156 96.003906 116.574219 96.003906 107.710938 L 96.003906 51.449219 C 96.003906 42.582031 88.792969 35.371094 79.929688 35.371094 Z M 168.339844 35.371094 L 128.152344 35.371094 C 119.289062 35.371094 112.078125 42.582031 112.078125 51.449219 L 112.078125 75.558594 C 112.078125 84.425781 119.289062 91.632812 128.152344 91.632812 L 168.339844 91.632812 C 177.207031 91.632812 184.414062 84.425781 184.414062 75.558594 L 184.414062 51.449219 C 184.414062 42.582031 177.207031 35.371094 168.339844 35.371094 Z M 79.929688 139.859375 L 39.742188 139.859375 C 30.875 139.859375 23.667969 147.070312 23.667969 155.933594 L 23.667969 180.046875 C 23.667969 188.910156 30.875 196.121094 39.742188 196.121094 L 79.929688 196.121094 C 88.792969 196.121094 96.003906 188.910156 96.003906 180.046875 L 96.003906 155.933594 C 96.003906 147.070312 88.792969 139.859375 79.929688 139.859375 Z M 168.339844 107.710938 L 128.152344 107.710938 C 119.289062 107.710938 112.078125 114.917969 112.078125 123.785156 L 112.078125 180.046875 C 112.078125 188.910156 119.289062 196.121094 128.152344 196.121094 L 168.339844 196.121094 C 177.207031 196.121094 184.414062 188.910156 184.414062 180.046875 L 184.414062 123.785156 C 184.414062 114.917969 177.207031 107.710938 168.339844 107.710938 Z M 168.339844 107.710938 "/></g></g></svg>