<?xml version="1.0" encoding="UTF-8"?>
<svg xmlns="http://www.w3.org/2000/svg" xmlns:xlink="http://www.w3.org/1999/xlink" width="42px" height="42px" viewBox="0 0 42 42" version="1.1">
<defs>
<clipPath id="clip1">
  <path d="M 4.199219 4.199219 L 37.800781 4.199219 L 37.800781 37.800781 L 4.199219 37.800781 Z M 4.199219 4.199219 "/>
</clipPath>
</defs>
<g id="surface1">
<g clip-path="url(#clip1)" clip-rule="nonzero">
<path style=" stroke:none;fill-rule:nonzero;fill:rgb(23.529412%,83.137256%,56.078434%);fill-opacity:1;" d="M 15.960938 4.199219 L 7.558594 4.199219 C 5.707031 4.199219 4.199219 5.707031 4.199219 7.558594 L 4.199219 19.320312 C 4.199219 21.171875 5.707031 22.679688 7.558594 22.679688 L 15.960938 22.679688 C 17.8125 22.679688 19.320312 21.171875 19.320312 19.320312 L 19.320312 7.558594 C 19.320312 5.707031 17.8125 4.199219 15.960938 4.199219 Z M 34.441406 4.199219 L 26.039062 4.199219 C 24.1875 4.199219 22.679688 5.707031 22.679688 7.558594 L 22.679688 12.601562 C 22.679688 14.453125 24.1875 15.960938 26.039062 15.960938 L 34.441406 15.960938 C 36.292969 15.960938 37.800781 14.453125 37.800781 12.601562 L 37.800781 7.558594 C 37.800781 5.707031 36.292969 4.199219 34.441406 4.199219 Z M 15.960938 26.039062 L 7.558594 26.039062 C 5.707031 26.039062 4.199219 27.546875 4.199219 29.398438 L 4.199219 34.441406 C 4.199219 36.292969 5.707031 37.800781 7.558594 37.800781 L 15.960938 37.800781 C 17.8125 37.800781 19.320312 36.292969 19.320312 34.441406 L 19.320312 29.398438 C 19.320312 27.546875 17.8125 26.039062 15.960938 26.039062 Z M 34.441406 19.320312 L 26.039062 19.320312 C 24.1875 19.320312 22.679688 20.828125 22.679688 22.679688 L 22.679688 34.441406 C 22.679688 36.292969 24.1875 37.800781 26.039062 37.800781 L 34.441406 37.800781 C 36.292969 37.800781 37.800781 36.292969 37.800781 34.441406 L 37.800781 22.679688 C 37.800781 20.828125 36.292969 19.320312 34.441406 19.320312 Z M 34.441406 19.320312 "/>
</g>
</g>
</svg>
