<?xml version="1.0" encoding="UTF-8"?>
<svg xmlns="http://www.w3.org/2000/svg" xmlns:xlink="http://www.w3.org/1999/xlink" width="45px" height="45px" viewBox="0 0 45 45" version="1.1">
<defs>
<clipPath id="clip1">
  <path d="M 4.5 4.703125 L 40.050781 4.703125 L 40.050781 40.253906 L 4.5 40.253906 Z M 4.5 4.703125 "/>
</clipPath>
</defs>
<g id="surface1">
<rect x="0" y="0" width="45" height="45" style="fill:rgb(100%,100%,100%);fill-opacity:1;stroke:none;"/>
<g clip-path="url(#clip1)" clip-rule="nonzero">
<path style=" stroke:none;fill-rule:nonzero;fill:rgb(23.529412%,83.137256%,56.078434%);fill-opacity:1;" d="M 16.957031 4.703125 L 8.058594 4.703125 C 6.097656 4.703125 4.5 6.300781 4.5 8.261719 L 4.5 20.71875 C 4.5 22.683594 6.097656 24.28125 8.058594 24.28125 L 16.957031 24.28125 C 18.917969 24.28125 20.515625 22.683594 20.515625 20.71875 L 20.515625 8.261719 C 20.515625 6.300781 18.917969 4.703125 16.957031 4.703125 Z M 36.53125 4.703125 L 27.632812 4.703125 C 25.671875 4.703125 24.074219 6.300781 24.074219 8.261719 L 24.074219 13.601562 C 24.074219 15.566406 25.671875 17.160156 27.632812 17.160156 L 36.53125 17.160156 C 38.496094 17.160156 40.089844 15.566406 40.089844 13.601562 L 40.089844 8.261719 C 40.089844 6.300781 38.496094 4.703125 36.53125 4.703125 Z M 16.957031 27.839844 L 8.058594 27.839844 C 6.097656 27.839844 4.5 29.433594 4.5 31.398438 L 4.5 36.738281 C 4.5 38.699219 6.097656 40.296875 8.058594 40.296875 L 16.957031 40.296875 C 18.917969 40.296875 20.515625 38.699219 20.515625 36.738281 L 20.515625 31.398438 C 20.515625 29.433594 18.917969 27.839844 16.957031 27.839844 Z M 36.53125 20.71875 L 27.632812 20.71875 C 25.671875 20.71875 24.074219 22.316406 24.074219 24.28125 L 24.074219 36.738281 C 24.074219 38.699219 25.671875 40.296875 27.632812 40.296875 L 36.53125 40.296875 C 38.496094 40.296875 40.089844 38.699219 40.089844 36.738281 L 40.089844 24.28125 C 40.089844 22.316406 38.496094 20.71875 36.53125 20.71875 Z M 36.53125 20.71875 "/>
</g>
</g>
</svg>
